<?xml version="1.0" standalone="no"?>
<!DOCTYPE svg PUBLIC "-//W3C//DTD SVG 20010904//EN"
 "http://www.w3.org/TR/2001/REC-SVG-20010904/DTD/svg10.dtd">
<svg version="1.0" xmlns="http://www.w3.org/2000/svg"
 width="420.000000pt" height="420.000000pt" viewBox="0 0 420.000000 420.000000"
 preserveAspectRatio="xMidYMid meet">

<g transform="translate(0.000000,420.000000) scale(0.100000,-0.100000)"
fill="#000000" stroke="none">
<path d="M500 4187 c-182 -54 -327 -184 -430 -387 -48 -94 -69 -202 -70 -345
0 -294 92 -440 437 -696 172 -127 397 -350 505 -499 207 -287 333 -568 406
-905 56 -260 66 -327 81 -540 16 -223 34 -303 90 -420 57 -120 132 -207 235
-272 116 -75 182 -92 357 -93 111 0 133 3 187 25 297 121 434 352 471 800 40
469 115 776 262 1060 102 198 172 311 250 401 247 288 310 346 544 505 108 73
222 189 265 269 38 72 80 176 80 202 0 9 7 23 15 32 22 22 22 300 0 322 -8 9
-15 23 -15 33 0 26 -52 148 -86 202 -95 151 -221 247 -392 299 -64 20 -89 22
-205 17 -118 -4 -140 -8 -211 -36 -43 -17 -126 -61 -185 -97 -90 -56 -155 -96
-309 -191 l-23 -14 1 -727 2 -727 -33 -80 c-18 -44 -39 -91 -47 -105 -116
-190 -215 -275 -402 -341 -91 -32 -252 -31 -360 1 -161 48 -262 126 -362 279
-55 85 -67 109 -100 201 -22 65 -22 68 -28 777 -3 455 -9 715 -15 721 -13 12
-280 183 -370 237 -38 23 -101 54 -140 70 -63 25 -84 28 -215 31 -99 3 -159 0
-190 -9z"/>
<path d="M2004 3821 c-109 -28 -209 -113 -279 -237 l-50 -89 0 -530 0 -530 45
-85 c64 -119 148 -197 255 -235 35 -13 82 -18 155 -19 101 -1 109 1 172 33
103 52 192 171 228 307 19 68 20 106 20 526 0 416 -2 459 -20 531 -31 123
-128 254 -225 305 -44 23 -64 26 -160 29 -60 1 -124 -2 -141 -6z"/>
</g>
</svg>
